<?xml version="1.0" encoding="utf-8"?>
<!-- Generator: Adobe Illustrator 16.0.4, SVG Export Plug-In . SVG Version: 6.00 Build 0)  -->
<!DOCTYPE svg PUBLIC "-//W3C//DTD SVG 1.1//EN" "http://www.w3.org/Graphics/SVG/1.1/DTD/svg11.dtd">
<svg version="1.1" id="Layer_1" xmlns="http://www.w3.org/2000/svg" xmlns:xlink="http://www.w3.org/1999/xlink" x="0px" y="0px"
	 width="1200px" height="253px" viewBox="0 0 1200 253" enable-background="new 0 0 1200 253" xml:space="preserve">
<path fill="#539259" stroke="#539259" stroke-width="1.51" d="M742.859-90.112l588.919-31.159l-819.907,12.659L742.859-90.112z"/>
<path fill="#AFDB9C" stroke="#AFDB9C" stroke-width="1.51" d="M991.537,552.522l-502.556-56.474l-159.195,21.422L991.537,552.522z"
	/>
<path fill="#1A783F" stroke="#1A783F" stroke-width="1.51" d="M415.106-73.56l96.766-35.053L134.174-57.007L415.106-73.56z"/>
<path fill="#0F6D39" stroke="#0F6D39" stroke-width="1.51" d="M134.174-57.007l377.698-51.605L7.234-85.244L134.174-57.007z"/>
<path fill="#89B278" stroke="#89B278" stroke-width="1.51" d="M329.786,517.471L16.599,462.943l-129.021,7.789L329.786,517.471z"/>
<path fill="#6E9E64" stroke="#6E9E64" stroke-width="1.51" d="M-38.547,411.338L-57.276,211.73l-55.146,259.002L-38.547,411.338z"/>
<path fill="#026034" stroke="#026034" stroke-width="1.51" d="M-31.264-2.48L7.234-85.244l-160.235,27.263L-31.264-2.48z"/>
<path fill="#418951" stroke="#418951" stroke-width="1.51" d="M-112.422,470.732l55.146-259.002l-95.725-269.711L-112.422,470.732z"
	/>
<path fill="#176F3B" stroke="#176F3B" stroke-width="1.51" d="M-57.276,211.73L-31.264-2.48l-121.737-55.5L-57.276,211.73z"/>
<path fill="#67A263" stroke="#67A263" stroke-width="1.51" d="M84.231,299.363l-30.175-50.632l-92.604,162.606L84.231,299.363z"/>
<path fill="#228347" stroke="#228347" stroke-width="1.51" d="M108.162,111.441L-31.264-2.48L-57.276,211.73L108.162,111.441z"/>
<path fill="#5E9B5E" stroke="#5E9B5E" stroke-width="1.51" d="M-38.547,411.338l92.604-162.606L-57.276,211.73L-38.547,411.338z"/>
<path fill="#7FA76F" stroke="#7FA76F" stroke-width="1.51" d="M16.599,462.943l-55.146-51.605l-73.875,59.395L16.599,462.943z"/>
<path fill="#8DB978" stroke="#8DB978" stroke-width="1.51" d="M329.786,517.471L211.17,430.812L16.599,462.943L329.786,517.471z"/>
<path fill="#3F9254" stroke="#3F9254" stroke-width="1.51" d="M54.056,248.731l54.105-137.29L-57.276,211.73L54.056,248.731z"/>
<path fill="#78A96A" stroke="#78A96A" stroke-width="1.51" d="M16.599,462.943l67.632-163.58L-38.547,411.338L16.599,462.943z"/>
<path fill="#026837" stroke="#026837" stroke-width="1.51" d="M134.174-57.007L7.234-85.244L-31.264-2.48L134.174-57.007z"/>
<path fill="#13753C" stroke="#13753C" stroke-width="1.51" d="M108.162,111.441l26.012-168.448L-31.264-2.48L108.162,111.441z"/>
<path fill="#1D7E41" stroke="#1D7E41" stroke-width="1.51" d="M167.47,84.178L134.174-57.007l-26.012,168.448L167.47,84.178z"/>
<path fill="#7DAF6E" stroke="#7DAF6E" stroke-width="1.51" d="M211.17,430.812L84.231,299.363l-67.632,163.58L211.17,430.812z"/>
<path fill="#B7E09F" stroke="#B7E09F" stroke-width="1.51" d="M991.537,552.522l-406.831-74.974l-95.725,18.5L991.537,552.522z"/>
<path fill="#72AD69" stroke="#72AD69" stroke-width="1.51" d="M211.17,430.812l-55.146-132.421l-71.793,0.973L211.17,430.812z"/>
<path fill="#3D9654" stroke="#3D9654" stroke-width="1.51" d="M193.482,164.021l-85.32-52.579l-54.105,137.29L193.482,164.021z"/>
<path fill="#60A261" stroke="#60A261" stroke-width="1.51" d="M84.231,299.363l71.793-0.973L54.056,248.731L84.231,299.363z"/>
<path fill="#53A05D" stroke="#53A05D" stroke-width="1.51" d="M156.024,298.391l37.458-134.37L54.056,248.731L156.024,298.391z"/>
<path fill="#1C7C40" stroke="#1C7C40" stroke-width="1.51" d="M167.47,84.178l122.777-71.079L134.174-57.007L167.47,84.178z"/>
<path fill="#2C904D" stroke="#2C904D" stroke-width="1.51" d="M193.482,164.021L167.47,84.178l-59.309,27.264L193.482,164.021z"/>
<path fill="#18793E" stroke="#18793E" stroke-width="1.51" d="M290.248,13.099L415.106-73.56L134.174-57.007L290.248,13.099z"/>
<path fill="#57A55F" stroke="#57A55F" stroke-width="1.51" d="M331.867,244.837l-138.385-80.816l-37.458,134.37L331.867,244.837z"/>
<path fill="#72B06A" stroke="#72B06A" stroke-width="1.51" d="M211.17,430.812l120.697-185.975l-175.842,53.554L211.17,430.812z"/>
<path fill="#298C49" stroke="#298C49" stroke-width="1.51" d="M193.482,164.021l96.766-150.922L167.47,84.178L193.482,164.021z"/>
<path fill="#79B86E" stroke="#79B86E" stroke-width="1.51" d="M417.188,329.548l-85.321-84.711L211.17,430.812L417.188,329.548z"/>
<path fill="#3A9A53" stroke="#3A9A53" stroke-width="1.51" d="M331.867,244.837L290.248,13.099l-96.766,150.922L331.867,244.837z"/>
<path fill="#8DC179" stroke="#8DC179" stroke-width="1.51" d="M329.786,517.471l87.401-187.923L211.17,430.812L329.786,517.471z"/>
<path fill="#8FC67C" stroke="#8FC67C" stroke-width="1.51" d="M461.928,371.417l-44.741-41.869l-87.401,187.923L461.928,371.417z"/>
<path fill="#3AA056" stroke="#3AA056" stroke-width="1.51" d="M331.867,244.837l138.386-124.632L290.248,13.099L331.867,244.837z"/>
<path fill="#298C49" stroke="#298C49" stroke-width="1.51" d="M470.252,120.205L415.106-73.56L290.248,13.099L470.252,120.205z"/>
<path fill="#55B064" stroke="#55B064" stroke-width="1.51" d="M499.386,209.783l-29.133-89.578L331.867,244.837L499.386,209.783z"/>
<path fill="#9BCC84" stroke="#9BCC84" stroke-width="1.51" d="M488.981,496.049l-27.053-124.632L329.786,517.471L488.981,496.049z"
	/>
<path fill="#6AB86C" stroke="#6AB86C" stroke-width="1.51" d="M417.188,329.548l82.198-119.765l-167.519,35.054L417.188,329.548z"/>
<path fill="#32924F" stroke="#32924F" stroke-width="1.51" d="M658.581-64.796l-146.709-43.816l-41.619,228.817L658.581-64.796z"/>
<path fill="#7AC173" stroke="#7AC173" stroke-width="1.51" d="M461.928,371.417l37.458-161.634l-82.198,119.765L461.928,371.417z"/>
<path fill="#298C4A" stroke="#298C4A" stroke-width="1.51" d="M470.252,120.205l41.619-228.817L415.106-73.56L470.252,120.205z"/>
<path fill="#699F63" stroke="#699F63" stroke-width="1.51" d="M1079.979-31.691l251.8-89.58L742.859-90.112L1079.979-31.691z"/>
<path fill="#388A4F" stroke="#388A4F" stroke-width="1.51" d="M658.581-64.796l84.278-25.316l-230.988-18.5L658.581-64.796z"/>
<path fill="#44A259" stroke="#44A259" stroke-width="1.51" d="M692.917,92.941L658.581-64.796L470.252,120.205L692.917,92.941z"/>
<path fill="#A1D588" stroke="#A1D588" stroke-width="1.51" d="M584.706,477.549l109.251-70.106l-232.029-36.025L584.706,477.549z"/>
<path fill="#93D082" stroke="#93D082" stroke-width="1.51" d="M693.957,407.442l-18.729-157.737l-213.3,121.712L693.957,407.442z"/>
<path fill="#7AC576" stroke="#7AC576" stroke-width="1.51" d="M675.229,249.705l-175.843-39.922l-37.458,161.634L675.229,249.705z"
	/>
<path fill="#9FD388" stroke="#9FD388" stroke-width="1.51" d="M488.981,496.049l95.725-18.5L461.928,371.417L488.981,496.049z"/>
<path fill="#50B164" stroke="#50B164" stroke-width="1.51" d="M499.386,209.783L692.917,92.941l-222.665,27.264L499.386,209.783z"/>
<path fill="#C1E59F" stroke="#C1E59F" stroke-width="1.51" d="M991.537,552.522L805.289,425.943l-220.583,51.605L991.537,552.522z"
	/>
<path fill="#66BC6E" stroke="#66BC6E" stroke-width="1.51" d="M675.229,249.705l17.688-156.764L499.386,209.783L675.229,249.705z"/>
<path fill="#B0DD92" stroke="#B0DD92" stroke-width="1.51" d="M805.289,425.943l-111.332-18.501l-109.251,70.106L805.289,425.943z"
	/>
<path fill="#5DA15F" stroke="#5DA15F" stroke-width="1.51" d="M906.217-15.139l173.762-16.552L742.859-90.112L906.217-15.139z"/>
<path fill="#52A55E" stroke="#52A55E" stroke-width="1.51" d="M793.844,95.862L742.859-90.112L692.917,92.941L793.844,95.862z"/>
<path fill="#9FD789" stroke="#9FD789" stroke-width="1.51" d="M693.957,407.442l87.401-26.289l-106.13-131.448L693.957,407.442z"/>
<path fill="#91D183" stroke="#91D183" stroke-width="1.51" d="M781.358,381.153l-42.66-148.001l-63.47,16.553L781.358,381.153z"/>
<path fill="#71C275" stroke="#71C275" stroke-width="1.51" d="M738.698,233.152L692.917,92.941l-17.688,156.764L738.698,233.152z"/>
<path fill="#469A58" stroke="#469A58" stroke-width="1.51" d="M692.917,92.941l49.942-183.054l-84.278,25.316L692.917,92.941z"/>
<path fill="#66BC6F" stroke="#66BC6F" stroke-width="1.51" d="M738.698,233.152l55.146-137.29l-100.927-2.921L738.698,233.152z"/>
<path fill="#57A35F" stroke="#57A35F" stroke-width="1.51" d="M793.844,95.862L906.217-15.139L742.859-90.112L793.844,95.862z"/>
<path fill="#B1DF92" stroke="#B1DF92" stroke-width="1.51" d="M805.289,425.943l-23.931-44.79l-87.401,26.289L805.289,425.943z"/>
<path fill="#9DD687" stroke="#9DD687" stroke-width="1.51" d="M781.358,381.153l168.56-120.737l-211.22-27.264L781.358,381.153z"/>
<path fill="#81C97B" stroke="#81C97B" stroke-width="1.51" d="M949.918,260.416L793.844,95.862l-55.146,137.29L949.918,260.416z"/>
<path fill="#BBE396" stroke="#BBE396" stroke-width="1.51" d="M805.289,425.943l201.855-46.737l-225.786,1.947L805.289,425.943z"/>
<path fill="#B4E091" stroke="#B4E091" stroke-width="1.51" d="M1007.145,379.206l-57.227-118.79l-168.56,120.737L1007.145,379.206z"
	/>
<path fill="#67AF67" stroke="#67AF67" stroke-width="1.51" d="M984.254,44.257l-78.037-59.396L793.844,95.862L984.254,44.257z"/>
<path fill="#79C475" stroke="#79C475" stroke-width="1.51" d="M949.918,260.416l34.336-216.159l-190.41,51.605L949.918,260.416z"/>
<path fill="#CDEAA0" stroke="#CDEAA0" stroke-width="1.51" d="M991.537,552.522l15.607-173.316l-201.855,46.737L991.537,552.522z"/>
<path fill="#EBF7B9" stroke="#EBF7B9" stroke-width="1.51" d="M1461.838,514.549l-369.372-32.132l-100.929,70.105L1461.838,514.549z
	"/>
<path fill="#91D081" stroke="#91D081" stroke-width="1.51" d="M1028.994,257.495l-44.74-213.238l-34.336,216.159L1028.994,257.495z"
	/>
<path fill="#6CAC67" stroke="#6CAC67" stroke-width="1.51" d="M984.254,44.257l95.725-75.948L906.217-15.139L984.254,44.257z"/>
<path fill="#EFF9B5" stroke="#EFF9B5" stroke-width="1.51" d="M1461.838,514.549l-183.126-70.105l-186.246,37.974L1461.838,514.549z
	"/>
<path fill="#D9F0A7" stroke="#D9F0A7" stroke-width="1.51" d="M1092.466,482.417l-85.321-103.211l-15.607,173.316L1092.466,482.417z
	"/>
<path fill="#85C779" stroke="#85C779" stroke-width="1.51" d="M1028.994,257.495l127.981-217.133l-172.722,3.895L1028.994,257.495z"
	/>
<path fill="#BAE394" stroke="#BAE394" stroke-width="1.51" d="M1007.145,379.206l30.174-25.315l-87.4-93.475L1007.145,379.206z"/>
<path fill="#B1DF90" stroke="#B1DF90" stroke-width="1.51" d="M1037.318,353.891l-8.324-96.396l-79.076,2.921L1037.318,353.891z"/>
<path fill="#79AA6B" stroke="#79AA6B" stroke-width="1.51" d="M1192.352-22.928l139.427-98.343l-251.8,89.58L1192.352-22.928z"/>
<path fill="#77B26B" stroke="#77B26B" stroke-width="1.51" d="M1156.976,40.362l-76.997-72.053l-95.725,75.948L1156.976,40.362z"/>
<path fill="#95D081" stroke="#95D081" stroke-width="1.51" d="M1294.32,118.257l-137.345-77.895l-127.981,217.133L1294.32,118.257z"
	/>
<path fill="#D0EC9F" stroke="#D0EC9F" stroke-width="1.51" d="M1092.466,482.417l-55.147-128.526l-30.174,25.315L1092.466,482.417z"
	/>
<path fill="#B1DF91" stroke="#B1DF91" stroke-width="1.51" d="M1263.104,315.916l31.216-197.659l-265.326,139.238L1263.104,315.916z
	"/>
<path fill="#C0E597" stroke="#C0E597" stroke-width="1.51" d="M1037.318,353.891l225.786-37.975l-234.11-58.421L1037.318,353.891z"
	/>
<path fill="#D5EEA1" stroke="#D5EEA1" stroke-width="1.51" d="M1092.466,482.417l170.639-166.501l-225.786,37.975L1092.466,482.417z
	"/>
<path fill="#B7E196" stroke="#B7E196" stroke-width="1.51" d="M1322.413,254.573l-28.093-136.316l-31.216,197.659L1322.413,254.573z
	"/>
<path fill="#E0F3A8" stroke="#E0F3A8" stroke-width="1.51" d="M1278.712,444.443l-15.607-128.527l-170.639,166.501L1278.712,444.443
	z"/>
<path fill="#7BB16D" stroke="#7BB16D" stroke-width="1.51" d="M1156.976,40.362l35.376-63.29l-112.373-8.763L1156.976,40.362z"/>
<path fill="#85B973" stroke="#85B973" stroke-width="1.51" d="M1336.979,43.283l-144.628-66.211l-35.376,63.29L1336.979,43.283z"/>
<path fill="#8FC47B" stroke="#8FC47B" stroke-width="1.51" d="M1294.32,118.257l42.659-74.974l-180.004-2.921L1294.32,118.257z"/>
<path fill="#82B171" stroke="#82B171" stroke-width="1.51" d="M1336.979,43.283l-5.201-164.554l-139.427,98.343L1336.979,43.283z"/>
<path fill="#DEF2A7" stroke="#DEF2A7" stroke-width="1.51" d="M1278.712,444.443l63.47-83.737l-79.077-44.79L1278.712,444.443z"/>
<path fill="#CFECA0" stroke="#CFECA0" stroke-width="1.51" d="M1342.182,360.706l-19.769-106.133l-59.309,61.343L1342.182,360.706z"
	/>
<path fill="#AEDB91" stroke="#AEDB91" stroke-width="1.51" d="M1322.413,254.573l117.575-88.605l-145.668-47.711L1322.413,254.573z"
	/>
<path fill="#EFF9B3" stroke="#EFF9B3" stroke-width="1.51" d="M1461.838,514.549l-119.656-153.843l-63.47,83.737L1461.838,514.549z"
	/>
<path fill="#9CD086" stroke="#9CD086" stroke-width="1.51" d="M1439.988,165.968L1336.979,43.283l-42.659,74.974L1439.988,165.968z"
	/>
<path fill="#8AB577" stroke="#8AB577" stroke-width="1.51" d="M1336.979,43.283l193.531-53.553l-198.732-111.001L1336.979,43.283z"
	/>
<path fill="#C8E89F" stroke="#C8E89F" stroke-width="1.51" d="M1342.182,360.706l166.479-179.159l-186.247,73.026L1342.182,360.706z
	"/>
<path fill="#B8E099" stroke="#B8E099" stroke-width="1.51" d="M1508.66,181.547l-68.672-15.579l-117.575,88.605L1508.66,181.547z"/>
<path fill="#9FD089" stroke="#9FD089" stroke-width="1.51" d="M1439.988,165.968l60.348-65.237l-163.356-57.447L1439.988,165.968z"
	/>
<path fill="#F1FAB9" stroke="#F1FAB9" stroke-width="1.51" d="M1461.838,514.549l116.535-106.133l-236.191-47.71L1461.838,514.549z"
	/>
<path fill="#D9EFAD" stroke="#D9EFAD" stroke-width="1.51" d="M1578.373,408.416l-69.713-226.869l-166.479,179.159L1578.373,408.416
	z"/>
<path fill="#96C383" stroke="#96C383" stroke-width="1.51" d="M1500.336,100.73l30.175-111l-193.531,53.553L1500.336,100.73z"/>
<path fill="#F8FDC6" stroke="#F8FDC6" stroke-width="1.51" d="M1587.737,470.732l-9.364-62.316l-116.535,106.133L1587.737,470.732z"
	/>
<path fill="#ABD996" stroke="#ABD996" stroke-width="1.51" d="M1508.66,181.547l-8.324-80.816l-60.348,65.237L1508.66,181.547z"/>
<path fill="#9ECE8F" stroke="#9ECE8F" stroke-width="1.51" d="M1508.66,181.547l21.851-191.816l-30.175,111L1508.66,181.547z"/>
<path fill="#D3EDB2" stroke="#D3EDB2" stroke-width="1.51" d="M1578.373,408.416l9.364,62.316L1530.511-10.27L1578.373,408.416z"/>
<path fill="#B7E0A3" stroke="#B7E0A3" stroke-width="1.51" d="M1578.373,408.416L1530.511-10.27l-21.851,191.816L1578.373,408.416z"
	/>
</svg>
