<svg width="60" height="60" version="1.1" xmlns="http://www.w3.org/2000/svg" xmlns:xlink="http://www.w3.org/1999/xlink" x="0px" y="0px" viewBox="0 0 24 24">
<path fill="blue" stroke="black" d="M23.9,15.8c0-0.1-0.2-0.1-0.3-0.1h-4.7c-0.3,0-0.3,0.2-0.4,0.3c0,0.1,0,0.3,0.1,0.4l1.4,1.4c-0.6,0.8-1.4,1.5-2.5,2.1
	c-1.1,0.5-2.2,1-3.6,1.1v-8.8h2.6c0.2,0,0.5-0.2,0.6-0.3c0.2-0.2,0.3-0.3,0.3-0.6V9.6c0-0.2-0.2-0.5-0.3-0.6
	c-0.2-0.2-0.3-0.3-0.6-0.3h-2.6V6.5c0.5-0.3,0.9-0.8,1.2-1.3s0.4-1,0.4-1.7c0-1-0.3-1.8-1-2.5C13.8,0.3,13,0,12,0s-1.8,0.3-2.5,1
	c-0.7,0.7-1,1.5-1,2.5C8.6,4,8.7,4.6,9,5.2c0.4,0.5,0.8,0.9,1.4,1.2v2.2H7.8c-0.2,0-0.5,0.2-0.6,0.3C7,9.1,6.9,9.2,6.9,9.5v1.7
	c0,0.2,0.2,0.5,0.3,0.6c0.2,0.2,0.3,0.3,0.6,0.3h2.3v8.8c-1.2-0.1-2.5-0.5-3.6-1.1c-1.1-0.6-1.9-1.3-2.5-2.1l1.4-1.4
	c0.1-0.1,0.2-0.3,0.1-0.4c-0.1-0.2-0.3-0.3-0.4-0.3H0.4c-0.2,0-0.2,0-0.3,0.1C0,15.7,0,15.9,0,16v4.8c0,0.3,0.1,0.3,0.3,0.4h0.1
	c0.2,0,0.2,0,0.3-0.1l1.2-1.3c1.1,1.3,2.5,2.4,4.3,3.1C8,23.6,9.9,24,12,24s4.1-0.4,5.9-1.1c1.8-0.7,3.2-1.8,4.3-3.1l1.2,1.3
	c0,0.1,0.2,0.1,0.3,0.1c0,0,0,0,0.1,0c0.1-0.1,0.3-0.3,0.3-0.4v-4.7C24,15.9,24,15.9,23.9,15.8z M12.7,4c-0.2,0.2-0.4,0.3-0.7,0.3
	s-0.5-0.1-0.6-0.2c-0.1-0.1-0.3-0.4-0.3-0.6s0.1-0.4,0.2-0.6s0.4-0.3,0.6-0.3c0.2,0,0.5,0.1,0.7,0.2c0.1,0.1,0.3,0.3,0.3,0.5
	S12.9,3.8,12.7,4z"/>
</svg>
